<?xml version="1.0" encoding="utf-8"?>
<!-- Generator: Adobe Illustrator 24.3.0, SVG Export Plug-In . SVG Version: 6.00 Build 0)  -->
<svg version="1.1" id="Layer_1" xmlns="http://www.w3.org/2000/svg" xmlns:xlink="http://www.w3.org/1999/xlink" x="0px" y="0px"
	 viewBox="0 0 24 24" style="enable-background:new 0 0 24 24;" xml:space="preserve">
<style type="text/css">
	.st0{fill-rule:evenodd;clip-rule:evenodd;fill:#3F2108;}
</style>
<path class="st0" d="M21.8,20.6L17.7,16c1.2-1.4,1.9-3.2,2-5c0.1-2.1-0.5-4.2-1.8-5.8s-3.2-2.8-5.2-3.1c-2-0.4-4.2,0-6,1.1
	C5,4.2,3.6,5.9,3,7.9S2.5,12.1,3.4,14c0.8,1.9,2.4,3.4,4.3,4.3s4.1,1,6.1,0.4c0.4-0.1,0.7-0.6,0.5-1c-0.1-0.4-0.6-0.7-1-0.5
	c-1.6,0.5-3.4,0.4-4.9-0.3c-1.5-0.7-2.8-1.9-3.5-3.5c-0.8-1.6-0.8-3.4-0.3-5s1.6-3,3-3.8c1.4-0.9,3.2-1.2,4.8-0.9s3.2,1.2,4.2,2.5
	s1.6,3,1.5,4.7s-0.8,3.3-2,4.5c-0.3,0.3-0.3,0.8,0.1,1.1l5.2,4.6c0.2,0.1,0.4,0.1,0.5,0S22,20.7,21.8,20.6z"/>
</svg>
